<?xml version="1.0" encoding="UTF-8" standalone="no"?>
<svg width="24px" height="24px" viewBox="0 0 24 24" version="1.1" xmlns="http://www.w3.org/2000/svg" xmlns:xlink="http://www.w3.org/1999/xlink">
    <!-- Generator: Sketch 47.1 (45422) - http://www.bohemiancoding.com/sketch -->
    <title>Matches Copy</title>
    <desc>Created with Sketch.</desc>
    <defs></defs>
    <g id="Page-1" stroke="none" stroke-width="1" fill="none" fill-rule="evenodd">
        <g id="Matches-Copy" fill-rule="nonzero" fill="#FFFFFF">
            <path d="M13.9733985,4.55512523 L23.1825916,10.8093492 C24.2724695,11.5495162 24.2724695,12.7495639 23.1825916,13.4897309 L13.9733985,19.7439549 C12.8835206,20.4841218 11.1164794,20.4841218 10.0266015,19.7439549 L0.817408428,13.4897309 C-0.272469476,12.7495639 -0.272469476,11.5495162 0.817408428,10.8093492 L10.0266015,4.55512523 C11.1164794,3.81495826 12.8835206,3.81495826 13.9733985,4.55512523 Z M12.6577995,5.44858579 C12.2945069,5.20186347 11.7054931,5.20186347 11.3422005,5.44858579 L2.13300744,11.7028098 C1.7697148,11.9495321 1.7697148,12.349548 2.13300744,12.5962703 L5.42200496,14.8299217 C5.78529759,15.0766441 6.37431133,15.0766441 6.73760397,14.8299217 L15.946797,8.57569778 C16.3100897,8.32897545 16.3100897,7.92895953 15.946797,7.68223721 L12.6577995,5.44858579 Z M18.577995,9.46915834 C18.2147024,9.22243602 17.6256887,9.22243602 17.262396,9.46915834 C15.6648168,10.5541197 14.5684843,11.2986702 13.9733985,11.7028098 C13.4762181,12.0404591 13.024498,12.347235 12.6577995,12.5962703 C12.2774148,12.8546004 11.8649994,13.1346834 11.3422005,13.4897309 C10.7548387,13.8886249 9.6585062,14.6331754 8.05320297,15.7233823 C7.68991034,15.9701046 7.68991034,16.3701206 8.05320297,16.6168429 L11.3422005,18.8504943 C11.7054931,19.0972166 12.2945069,19.0972166 12.6577995,18.8504943 L21.8669926,12.5962703 C22.2302852,12.349548 22.2302852,11.9495321 21.8669926,11.7028098 L18.577995,9.46915834 Z M5.42200496,11.2560795 L6.07980446,11.7028098 C6.4430971,11.9495321 6.4430971,12.349548 6.07980446,12.5962703 L5.42200496,13.0430006 C5.05871232,13.2897229 4.46969858,13.2897229 4.10640595,13.0430006 L3.44860644,12.5962703 C3.08531381,12.349548 3.08531381,11.9495321 3.44860644,11.7028098 L4.10640595,11.2560795 C4.46969858,11.0093572 5.05871232,11.0093572 5.42200496,11.2560795 Z M12.6577995,6.34204636 L13.315599,6.78877664 C13.6788916,7.03549897 13.6788916,7.43551489 13.315599,7.68223721 L12.6577995,8.12896749 C12.2945069,8.37568982 11.7054931,8.37568982 11.3422005,8.12896749 L10.684401,7.68223721 C10.3211084,7.43551489 10.3211084,7.03549897 10.684401,6.78877664 L11.3422005,6.34204636 C11.7054931,6.09532404 12.2945069,6.09532404 12.6577995,6.34204636 Z M12.6577995,16.1701126 L13.315599,16.6168429 C13.6788916,16.8635652 13.6788916,17.2635811 13.315599,17.5103034 L12.6577995,17.9570337 C12.2945069,18.203756 11.7054931,18.203756 11.3422005,17.9570337 L10.684401,17.5103034 C10.3211084,17.2635811 10.3211084,16.8635652 10.684401,16.6168429 L11.3422005,16.1701126 C11.7054931,15.9233903 12.2945069,15.9233903 12.6577995,16.1701126 Z M19.8935941,11.2560795 L20.5513936,11.7028098 C20.9146862,11.9495321 20.9146862,12.349548 20.5513936,12.5962703 L19.8935941,13.0430006 C19.5303014,13.2897229 18.9412877,13.2897229 18.577995,13.0430006 L17.9201955,12.5962703 C17.5569029,12.349548 17.5569029,11.9495321 17.9201955,11.7028098 L18.577995,11.2560795 C18.9412877,11.0093572 19.5303014,11.0093572 19.8935941,11.2560795 Z" id="Matches"></path>
        </g>
    </g>
</svg>