<?xml version="1.0" encoding="UTF-8" standalone="no"?>
<svg width="24px" height="24px" viewBox="0 0 24 24" version="1.1" xmlns="http://www.w3.org/2000/svg" xmlns:xlink="http://www.w3.org/1999/xlink">
    <!-- Generator: Sketch 47.1 (45422) - http://www.bohemiancoding.com/sketch -->
    <title>Rankings Copy</title>
    <desc>Created with Sketch.</desc>
    <defs></defs>
    <g id="Page-1" stroke="none" stroke-width="1" fill="none" fill-rule="evenodd">
        <g id="Rankings-Copy" fill-rule="nonzero" fill="#FFFFFF">
            <path d="M2,22 C1.44771525,22 1,21.5522847 1,21 C1,20.4477153 1.44771525,20 2,20 L22,20 C22.5522847,20 23,20.4477153 23,21 C23,21.5522847 22.5522847,22 22,22 L2,22 Z M3,13 L7,13 C7.55228475,13 8,13.4477153 8,14 L8,18 C8,18.5522847 7.55228475,19 7,19 L3,19 C2.44771525,19 2,18.5522847 2,18 L2,14 C2,13.4477153 2.44771525,13 3,13 L3,13 Z M17,7 L21,7 C21.5522847,7 22,7.44771525 22,8 L22,18 C22,18.5522847 21.5522847,19 21,19 L17,19 C16.4477153,19 16,18.5522847 16,18 L16,8 C16,7.44771525 16.4477153,7 17,7 Z M10,1 L14,1 C14.5522847,1 15,1.44771525 15,2 L15,18 C15,18.5522847 14.5522847,19 14,19 L10,19 C9.44771525,19 9,18.5522847 9,18 L9,2 L9,2 C9,1.44771525 9.44771525,1 10,1 Z" id="Rankings"></path>
        </g>
    </g>
</svg>