<?xml version="1.0" encoding="UTF-8" standalone="no"?>
<svg width="24px" height="24px" viewBox="0 0 24 24" version="1.1" xmlns="http://www.w3.org/2000/svg" xmlns:xlink="http://www.w3.org/1999/xlink">
    <!-- Generator: Sketch 47.1 (45422) - http://www.bohemiancoding.com/sketch -->
    <title>Scores Copy</title>
    <desc>Created with Sketch.</desc>
    <defs></defs>
    <g id="Page-1" stroke="none" stroke-width="1" fill="none" fill-rule="evenodd">
        <g id="Scores-Copy" fill-rule="nonzero" fill="#FFFFFF">
            <path d="M4,5 L20,5 C21.6568542,5 23,6.34314575 23,8 L23,16 C23,17.6568542 21.6568542,19 20,19 L4,19 C2.34314575,19 1,17.6568542 1,16 L1,8 C1,6.34314575 2.34314575,5 4,5 Z M4,7 C3.44771525,7 3,7.44771525 3,8 L3,16 C3,16.5522847 3.44771525,17 4,17 L20,17 C20.5522847,17 21,16.5522847 21,16 L21,8 C21,7.44771525 20.5522847,7 20,7 L4,7 Z M7,8 L9,8 C10.1045695,8 11,8.8954305 11,10 L11,14 C11,15.1045695 10.1045695,16 9,16 L7,16 C5.8954305,16 5,15.1045695 5,14 L5,10 C5,8.8954305 5.8954305,8 7,8 Z M7,9 C6.44771525,9 6,9.44771525 6,10 L6,14 C6,14.5522847 6.44771525,15 7,15 L9,15 C9.55228475,15 10,14.5522847 10,14 L10,10 C10,9.44771525 9.55228475,9 9,9 L7,9 Z M16.5,15.5 L16.5,9 L16,9 C15.7238576,9 15.5,8.77614237 15.5,8.5 C15.5,8.22385763 15.7238576,8 16,8 L17,8 C17.2761424,8 17.5,8.22385763 17.5,8.5 L17.5,15.5 C17.5,15.7761424 17.2761424,16 17,16 C16.7238576,16 16.5,15.7761424 16.5,15.5 Z" id="Scores"></path>
        </g>
    </g>
</svg>