<?xml version="1.0" encoding="UTF-8" standalone="no"?>
<svg width="24px" height="24px" viewBox="0 0 24 24" version="1.1" xmlns="http://www.w3.org/2000/svg" xmlns:xlink="http://www.w3.org/1999/xlink">
    <!-- Generator: Sketch 47.1 (45422) - http://www.bohemiancoding.com/sketch -->
    <title>Teams Copy</title>
    <desc>Created with Sketch.</desc>
    <defs></defs>
    <g id="Page-1" stroke="none" stroke-width="1" fill="none" fill-rule="evenodd">
        <g id="Teams-Copy" fill="#FFFFFF">
            <path d="M5,8 C3.34314575,8 2,6.65685425 2,5 C2,3.34314575 3.34314575,2 5,2 C6.65685425,2 8,3.34314575 8,5 C8,6.65685425 6.65685425,8 5,8 Z M19,8 C17.3431458,8 16,6.65685425 16,5 C16,3.34314575 17.3431458,2 19,2 C20.6568542,2 22,3.34314575 22,5 C22,6.65685425 20.6568542,8 19,8 Z M12,11 C10.3431458,11 9,9.65685425 9,8 C9,6.34314575 10.3431458,5 12,5 C13.6568542,5 15,6.34314575 15,8 C15,9.65685425 13.6568542,11 12,11 Z M4,9 L6,9 C7.1045695,9 8,9.8954305 8,11 L8,17 C8,18.1045695 7.1045695,19 6,19 L4,19 C2.8954305,19 2,18.1045695 2,17 L2,11 L2,11 C2,9.8954305 2.8954305,9 4,9 L4,9 Z M11,12 L13,12 C14.1045695,12 15,12.8954305 15,14 L15,20 C15,21.1045695 14.1045695,22 13,22 L11,22 C9.8954305,22 9,21.1045695 9,20 L9,14 C9,12.8954305 9.8954305,12 11,12 Z M18,9 L20,9 C21.1045695,9 22,9.8954305 22,11 L22,17 C22,18.1045695 21.1045695,19 20,19 L18,19 C16.8954305,19 16,18.1045695 16,17 L16,11 C16,9.8954305 16.8954305,9 18,9 Z" id="Teams"></path>
        </g>
    </g>
</svg>