<?xml version="1.0" encoding="UTF-8" standalone="no"?>
<svg width="406px" height="107px" viewBox="0 0 406 107" version="1.1" xmlns="http://www.w3.org/2000/svg" xmlns:xlink="http://www.w3.org/1999/xlink">
    <!-- Generator: Sketch 47.1 (45422) - http://www.bohemiancoding.com/sketch -->
    <title>FIRST_HorzCMYK</title>
    <desc>Created with Sketch.</desc>
    <defs>
        <polygon id="path-1" points="65.346 67.94 0.959 67.94 0.959 0.181 65.346 0.181"></polygon>
    </defs>
    <g id="Page-1" stroke="none" stroke-width="1" fill="none" fill-rule="evenodd">
        <g id="FIRST_HorzCMYK">
            <path d="M85.301,34.596 C88.424,34.596 91.453,34.882 94.346,35.41 L101.23,28.237 C96.416,26.571 91.012,25.635 85.301,25.635 C75.59,25.635 66.773,28.343 60.236,32.751 L66.234,38.435 C71.781,36.005 78.309,34.596 85.301,34.596" id="Fill-1" fill="#91918F"></path>
            <path d="M85.301,25.635 C91.012,25.635 96.416,26.571 101.23,28.237 L108.713,20.445 C101.73,17.693 93.766,16.13 85.301,16.13 C72.685,16.13 61.172,19.601 52.387,25.313 L60.236,32.751 C66.773,28.343 75.59,25.635 85.301,25.635" id="Fill-2" fill="#FFFFFE"></path>
            <path d="M49.365,56.12 C49.994,53.55 51.158,51.108 52.762,48.854 L49.748,45.805 C49.146,47.68 48.816,49.634 48.816,51.64 C48.816,53.169 49.011,54.664 49.365,56.12" id="Fill-3" fill="#91918F"></path>
            <path d="M27.09,72.978 L25.824,79.541 L38.418,74.119 C37.623,72.446 37.468,70.268 37.006,68.494 L27.09,72.978" id="Fill-4" fill="#91918F"></path>
            <polyline id="Fill-5" fill="#91918F" points="18.228 1.62 0 101.43 8.62 102.134 26.668 0.869 18.228 1.62"></polyline>
            <path d="M79.519,59.055 L79.519,50.983 L26.64,0.868 L8.584,102.134 L46.787,85.338 C42.982,81.977 40.285,78.396 38.285,74.177 L25.848,79.51 L27.096,72.983 L35.154,30.983 L35.828,27.458 L54.717,46.485 L69.828,59.501 L55.156,66.221 C58.969,70.03 63.479,73.381 69.564,75.275 L87.865,67.056 L79.519,59.055" id="Fill-6" fill="#D8232A"></path>
            <g id="Group-10" transform="translate(112.000000, 39.000000)">
                <mask id="mask-2" fill="white">
                    <use xlink:href="#path-1"></use>
                </mask>
                <g id="Clip-8"></g>
                <path d="M9.234,17.12 C9.59,15.664 9.787,14.169 9.787,12.64 C9.787,8.132 8.137,3.878 5.303,0.181 L0.959,4.681 C5.127,8.153 8.094,12.429 9.234,17.12" id="Fill-7" fill="#91918F" mask="url(#mask-2)"></path>
                <path d="M17.402,59.843 L7.105,49.947 C5.461,51.073 3.697,52.115 1.855,53.072 L17.402,68 L65.346,18.065 L65.293,9.978 L17.402,59.843" id="Fill-9" fill="#91918F" mask="url(#mask-2)"></path>
            </g>
            <path d="M94.467,65.302 L85.988,57.158 L79.496,50.963 L79.473,59.055 L97.32,76.195 C99.533,75.643 101.654,74.947 103.65,74.119 L94.467,65.302" id="Fill-11" fill="#91918F"></path>
            <polyline id="Fill-12" fill="#91918F" points="127.803 20.143 98.592 50.565 102.666 54.475 125.266 30.942 127.803 28.299 154.168 53.572 158.246 49.338 127.803 20.143"></polyline>
            <path d="M125.266,30.942 L117.342,39.195 C120.176,42.891 121.787,47.132 121.787,51.64 C121.787,53.169 121.59,54.664 121.234,56.12 C120.309,59.915 118.23,63.427 115.266,66.468 C112.226,69.581 108.262,72.199 103.65,74.119 C101.654,74.947 99.533,75.643 97.32,76.195 C93.557,77.128 89.514,77.644 85.301,77.644 C80.113,77.644 75.186,76.872 70.719,75.479 C64.635,73.584 59.418,70.543 55.604,66.733 C54.213,65.346 53.012,63.855 52.02,62.28 C50.799,60.342 49.895,58.278 49.365,56.12 C49.011,54.664 48.816,53.169 48.816,51.64 C48.816,49.634 49.146,47.68 49.748,45.805 L40.643,36.59 C37.311,41.534 35.428,47.104 35.428,53.005 C35.428,54.524 35.566,56.018 35.809,57.487 C36.393,61.053 37.67,64.457 39.531,67.634 C40.463,69.23 41.548,70.766 42.766,72.237 C45.969,76.101 50.1,79.492 54.938,82.246 C63.346,87.029 73.869,89.879 85.301,89.879 C93.299,89.879 100.851,88.487 107.549,86.014 C109.58,85.264 111.531,84.415 113.392,83.47 C117.713,81.288 121.541,78.617 124.738,75.563 C130.104,70.441 133.688,64.248 134.795,57.487 C135.037,56.018 135.174,54.524 135.174,53.005 C135.174,44.731 131.49,37.094 125.266,30.942" id="Fill-13" fill="#FFFFFE"></path>
            <path d="M94.424,65.364 L103.574,74.15 C108.184,72.23 112.182,69.642 115.223,66.529 L98.603,50.571 L120.934,27.31 L127.76,20.204 L158.131,49.361 L129.172,79.514 C126.553,83.106 123.154,86.292 119.137,89.041 L129.357,98.904 L177.303,48.973 L127.369,1.03 L94.301,35.471 L79.496,50.963 L94.424,65.364" id="Fill-14" fill="#005C9C"></path>
            <path d="M52.227,62.528 C52.227,62.528 52.464,62.922 52.493,62.967 C53.225,64.131 54.231,65.197 55.184,66.26 L70.1,59.369 L35.824,27.447 L34.887,32.385 L61.781,59.009 L52.227,62.528" id="Fill-15" fill="#91918F"></path>
            <path d="M135.174,53.005 C135.174,54.524 135.037,56.018 134.795,57.487 C133.688,64.248 130.104,70.441 124.738,75.563 C121.541,78.617 117.713,81.288 113.392,83.47 C111.531,84.415 109.58,85.264 107.549,86.014 C100.851,88.487 93.299,89.879 85.301,89.879 C73.869,89.879 63.346,87.029 54.938,82.246 C50.1,79.492 45.969,76.101 42.766,72.237 C41.548,70.766 40.463,69.23 39.531,67.634 C37.67,64.457 36.393,61.053 35.809,57.487 C35.566,56.018 35.428,54.524 35.428,53.005 C35.428,52.528 35.461,52.055 35.486,51.586 C35.481,51.559 35.473,51.525 35.471,51.501 C35.229,52.97 35.428,60.451 35.428,61.968 C35.428,64.374 35.748,66.722 36.345,69.001 C36.807,70.775 37.443,72.504 38.238,74.177 C40.238,78.396 43.245,82.267 47.051,85.628 C56.203,93.702 69.939,98.843 85.301,98.843 C95.963,98.843 105.83,96.362 113.938,92.15 C115.779,91.193 117.531,90.149 119.176,89.023 C123.193,86.274 126.598,83.045 129.217,79.453 C133.016,74.254 135.174,68.298 135.174,61.968 C135.174,60.634 135.289,54.307 135.16,51.796 C135.139,51.451 135.174,52.569 135.174,53.005" id="Fill-16" fill="#91918F"></path>
            <polyline id="Fill-17" fill="#1A1919" points="189.246 25.025 228.937 25.025 225.2 40.309 206.176 40.309 204.295 48.339 224.14 48.339 220.685 62.5 201.097 62.5 196.394 82.62 175.89 82.62 189.246 25.025"></polyline>
            <polyline id="Fill-18" fill="#1A1919" points="234.333 25.025 254.837 25.025 241.481 82.62 220.977 82.62 234.333 25.025"></polyline>
            <path d="M275.344,52.485 C281.928,52.485 286.537,48.598 286.537,43.073 C286.537,40.136 284.373,38.668 280.141,38.668 C278.918,38.668 278.26,38.754 276.943,39.014 L273.839,52.311 C274.498,52.398 274.592,52.485 275.344,52.485 Z M260.201,25.371 L261.518,25.198 C268.102,24.42 276.285,23.903 280.799,23.903 C288.323,23.903 294.155,24.766 298.576,26.579 C304.219,28.911 307.606,34.005 307.606,40.136 C307.606,45.403 305.818,50.412 302.432,54.297 C299.516,57.664 296.883,59.305 291.427,60.946 L290.11,61.377 C290.675,61.81 290.863,61.983 291.146,62.242 C292.744,64.055 297.541,73.381 301.586,82.62 L279.012,82.62 C276.097,74.416 275.25,72.258 271.394,62.932 L266.879,82.62 L246.94,82.62 L260.201,25.371 L260.201,25.371 Z" id="Fill-19" fill="#1A1919"></path>
            <polyline id="Fill-20" fill="#1A1919" points="356.28 25.025 406.03 25.025 402.555 41.698 387.789 41.698 378.007 82.62 357.503 82.62 367.285 41.698 351.28 41.698 356.28 25.025"></polyline>
            <path d="M387.468,77.164 C387.912,77.164 388.164,76.951 388.164,76.544 C388.164,76.158 387.932,75.945 387.487,75.945 C387.391,75.945 387.371,75.945 387.274,75.964 L387.274,77.144 C387.352,77.164 387.391,77.164 387.468,77.164 Z M385.67,74.766 C385.922,74.747 385.96,74.728 386.463,74.689 C386.965,74.65 387.178,74.63 387.391,74.63 C389.034,74.63 389.846,75.269 389.846,76.487 C389.846,77.221 389.537,77.665 388.879,77.917 L388.802,77.937 C388.859,77.976 388.879,77.995 388.899,78.033 C389.072,78.188 389.652,79.058 390.136,79.851 L388.261,79.851 C387.874,79.135 387.758,78.942 387.274,78.13 L387.274,79.851 L385.67,79.851 L385.67,74.766 Z M387.604,81.706 C390.039,81.706 391.992,79.753 391.992,77.337 C391.992,74.902 390.039,72.949 387.604,72.949 C385.187,72.949 383.234,74.902 383.234,77.318 C383.234,79.773 385.168,81.706 387.604,81.706 Z M387.604,72.33 C390.367,72.33 392.61,74.554 392.61,77.318 C392.61,80.102 390.387,82.326 387.604,82.326 C384.8,82.326 382.615,80.14 382.615,77.318 C382.615,74.535 384.819,72.33 387.604,72.33 L387.604,72.33 Z" id="Fill-21" fill="#1A1919"></path>
            <path d="M303.604,81.156 C309.368,82.869 315.672,83.829 321.562,83.829 C329.557,83.829 335.67,82.016 340.937,78.216 C346.768,74.071 350.53,67.682 350.53,61.897 C350.53,58.01 348.838,54.47 345.828,51.965 C343.477,50.067 341.031,48.598 336.046,46.267 L332.002,44.368 C330.685,43.676 330.026,42.986 330.026,42.208 C330.026,40.136 332.66,38.582 336.234,38.582 C338.908,38.582 342.095,39.36 348.185,41.351 L352.388,25.76 C347.833,24.523 343.396,23.903 338.961,23.903 C322.22,23.903 309.334,33.055 309.334,44.885 C309.334,51.102 313.473,55.506 323.818,60.342 C328.709,62.586 329.557,63.192 329.557,64.746 C329.557,67.077 327.017,68.545 322.878,68.545 C319.21,68.545 314.508,67.422 308.111,65.091 L308.104,65.093 L303.604,81.156" id="Fill-22" fill="#1A1919"></path>
        </g>
    </g>
</svg>